<svg width="100" height="92" viewBox="0 0 100 92" fill="none" xmlns="http://www.w3.org/2000/svg">
<path d="M63.0291 86.7676C63.4166 88.0134 64.4416 89.0718 64.4666 90.5009C64.5583 90.9468 64.2541 92.2384 63.7666 91.3759C62.7291 87.9093 62.3916 91.2301 59.3291 86.4426C58.6708 85.1384 57.5416 86.2134 56.5666 86.2759C53.675 85.3259 54.525 85.0551 52.7958 87.5259C51.4833 87.8926 52.5916 84.8467 53.2166 84.5093C54.425 83.4759 56.3375 84.1509 57.0375 83.0259C58.2125 78.2634 54.3708 72.3301 52.2125 68.2343C51.5083 67.1342 52.2666 65.8301 52.1083 64.6426C51.4833 62.9426 51.325 63.3843 51.9041 61.5843C50.9583 59.6134 48.3083 62.6926 46.8208 62.6468C45.6333 62.6634 44.6416 60.7718 43.1 60.6468C37.5375 60.6634 32.3458 64.0134 26.7416 63.4426C25.7279 63.4535 24.7403 63.7653 23.9041 64.3384C22.1791 65.2634 20.1166 65.1842 18.5375 66.5134C18.0416 66.9093 17.4125 66.9468 16.8125 66.9218C15.6875 67.0884 14.825 68.4634 13.5458 68.3384C12.2458 67.8842 11.1875 68.6676 9.96247 68.5759C8.5458 67.3884 6.7083 68.3384 5.0708 68.6093C4.85969 68.7025 4.62604 68.7325 4.39822 68.6955C4.1704 68.6585 3.95823 68.5562 3.78747 68.4009C3.41247 68.1009 2.68747 68.0593 2.43747 67.6634C2.31247 67.4176 2.55413 67.0592 2.85413 66.8134C5.04997 65.1259 7.59163 64.0384 10.0208 62.7551C14.7958 60.2801 18.8458 56.6593 23.1875 53.5134C23.4625 53.3051 23.5416 53.0134 23.0416 53.0176C16.325 53.5801 9.9333 57.3843 3.29163 57.2343C2.5583 57.3301 1.87913 57.7634 1.11663 57.8593C-2.53337 57.0884 3.82497 53.0259 5.09163 52.6051C12.1916 49.6426 20.0833 49.0926 26.6916 44.9551C27.475 44.4051 25.9833 43.8384 26.675 42.7468C28.3 37.3718 33.2416 35.2259 38.0708 33.6468C40.5458 32.6843 42.8083 30.8468 45.5583 30.8176C46.9125 30.8843 48.2 30.3468 49.1083 29.3176C53.9541 24.8551 59.2833 20.9343 64.4166 16.8218C70.3041 9.39258 73.925 -4.74075 86.15 1.58842C89.9833 3.23425 94.375 3.10925 97.8458 5.65508C99.0833 6.44258 101.417 8.84258 98.8291 9.19675C91.7375 10.4093 88.1958 8.23842 87.8708 15.2551C87.7458 16.8801 88.1375 18.3801 87.2125 19.7801C87.1541 22.6718 88.6791 26.0634 86.8625 28.6509C85.3458 31.2759 86.5375 34.5384 85.2791 37.1801C84.3625 39.4051 82.5708 41.0551 80.9083 42.6926C75.475 49.4843 71.4666 57.1759 70.1208 65.9093C69.6125 68.5218 68.1291 72.4093 70.525 74.4759C73.0541 77.0259 75.7333 80.5509 79.6083 78.6926C80.8833 78.1093 83.2916 77.9051 83.1083 79.8343C82.9 80.1801 82.0333 79.4259 81.5625 79.6009C80.8958 80.0259 81.8625 80.9176 81.6833 81.5384C81.5916 82.1218 81.125 82.0384 80.725 81.7634C79.5541 81.2968 77.8708 81.7718 76.5375 81.7218C75.4625 81.9093 74.4041 82.3968 73.3625 81.9301C72.8791 81.7259 72.4083 81.5134 71.8791 81.5009C70.2541 81.4092 68.1958 82.2593 67.2833 80.8884C66.275 78.9968 66.0625 80.4551 65.0666 81.0884C64.0875 81.0259 64.7875 79.6301 65.125 79.1718C66.1625 76.7968 72.8166 81.3259 70.0541 77.3718C60.5125 68.9967 66.8166 66.1801 63.1958 66.1634C62.4875 65.7926 62.7666 64.4759 61.6708 65.4426C60.275 66.9009 59.7541 65.0343 59.7541 63.7759C59.5875 63.0468 59.0166 62.5259 59.2333 61.7801C59.325 60.1551 57.1666 62.1343 57.65 63.4884C57.8875 66.0551 57.1 68.5926 57.225 71.1259C58.225 76.4426 58.9333 83.1968 64.9916 84.7759C65.7291 85.0926 66.9208 86.5759 66.0458 87.1301C65.6583 87.0884 65.3791 86.6718 65.0333 86.4926C64.55 86.1676 63.9625 86.5301 63.4583 86.5676C63.3166 86.6009 63.0916 86.5968 63.0416 86.7593L63.0291 86.7676Z" fill="url(#paint0_linear_867_14118)"/>
<defs>
<linearGradient id="paint0_linear_867_14118" x1="9999.94" y1="4940.16" x2="0" y2="4940.16" gradientUnits="userSpaceOnUse">
<stop stop-color="#1D1A5C"/>
<stop offset="0.49586" stop-color="#3431C3"/>
<stop offset="1" stop-color="#7361F7"/>
</linearGradient>
</defs>
</svg>
